<svg xlink="http://www.w3.org/1999/xlink" viewBox="0 0 5000 5000" xmlns="http://www.w3.org/2000/svg" style="transform: scale(1);"><defs><filter id="goo"><feGaussianBlur in="SourceGraphic" stdDeviation="0" result="blur"></feGaussianBlur><feColorMatrix in="blur" type="matrix" values="1 0 0 0 0 0 1 0 0 0 0 0 1 0 0 0 0 0 19 -9" result="good"></feColorMatrix><feComposite in="SourceGraphic" in2="goo" operator="atop"></feComposite></filter><path d="M364,228C371,273 285,272 275,280C265,288 258,372 214,360C172,345 214,270 211,257C209,242 146,184 176,161C205,137 247,209 262,213C276,218 358,191 364,228z" id="P0"></path><path d="M321,175C340,193 286,238 287,250C287,259 344,302 325,321C307,340 262,286 252,287C243,287 204,347 179,325C160,307 214,262 213,250C213,241 156,198 175,179C193,160 238,214 250,213C259,213 302,156 321,175z" id="P1"></path><path d="M182,228C185,214 226,230 232,225C237,222 232,178 250,178C264,177 262,221 268,225C273,229 313,210 318,228C324,241 281,252 279,259C277,265 307,297 292,308C282,317 258,280 250,280C244,281 223,319 208,308C196,301 224,267 221,259C219,254 176,245 182,228z" id="P2"></path><path d="M325,341C289,369 247,292 235,287C223,282 145,316 134,272C127,227 215,228 225,219C237,210 258,125 293,140C329,155 285,228 289,243C291,258 356,317 325,341z" id="P3"></path><path d="M228,290C217,285 228,264 226,256C224,250 204,238 210,228C215,217 236,228 244,226C250,224 262,204 272,210C283,215 272,236 274,244C276,250 296,262 290,272C285,283 264,272 256,274C250,276 238,296 228,290z" id="P4"></path><path d="M256,157C274,157 265,218 272,223C277,227 334,204 340,227C346,244 285,254 282,263C280,269 320,316 300,329C285,339 257,285 248,285C241,285 209,337 191,322C176,311 219,267 216,259C214,252 155,238 164,216C169,199 224,226 231,221C237,217 232,156 256,157z" id="P5"></path><path d="M244,157C280,156 273,222 279,231C285,241 347,256 334,290C317,322 264,284 252,285C239,285 187,326 171,300C155,274 214,248 219,235C225,223 214,158 244,157z" id="P6"></path><path d="M185,262C181,246 221,241 226,233C231,227 221,188 238,185C254,181 259,221 267,226C273,231 312,221 315,238C319,254 279,259 274,267C269,273 279,312 262,315C246,319 241,279 233,274C227,269 188,279 185,262z" id="P7"></path><path d="M285,163C302,168 275,224 279,231C283,237 345,232 344,256C344,274 282,265 277,272C273,278 297,335 273,341C256,347 246,286 237,282C231,280 184,321 171,300C160,286 215,257 215,248C215,241 162,209 178,190C188,175 233,219 241,216C248,214 262,154 285,163z" id="P8"></path></defs><rect id="RECT" width="5000" height="5000" fill="#FFFFFF"></rect><g id="group" fill="#FFF6DC" filter="" opacity="0.82"><use x="275" y="78" href="#P7"></use><use x="36" y="922" href="#P2"></use><use x="266" y="1634" href="#P5"></use><use x="-209" y="1969" href="#P2"></use><use x="52" y="2600" href="#P7"></use><use x="277" y="3495" href="#P4"></use><use x="98" y="4038" href="#P3"></use><use x="180" y="4967" href="#P3"></use><use x="919" y="104" href="#P8"></use><use x="1097" y="974" href="#P1"></use><use x="920" y="1697" href="#P4"></use><use x="704" y="2023" href="#P8"></use><use x="1103" y="3067" href="#P2"></use><use x="683" y="3556" href="#P7"></use><use x="569" y="4247" href="#P2"></use><use x="1285" y="4952" href="#P2"></use><use x="1443" y="-178" href="#P6"></use><use x="1430" y="572" href="#P7"></use><use x="1827" y="1600" href="#P4"></use><use x="1703" y="1972" href="#P5"></use><use x="1808" y="2563" href="#P7"></use><use x="1833" y="3715" href="#P6"></use><use x="1999" y="4578" href="#P2"></use><use x="1347" y="5196" href="#P1"></use><use x="2160" y="114" href="#P0"></use><use x="2184" y="531" href="#P4"></use><use x="2402" y="1685" href="#P4"></use><use x="2443" y="1846" href="#P1"></use><use x="2537" y="2604" href="#P5"></use><use x="2660" y="3561" href="#P6"></use><use x="2318" y="4339" href="#P2"></use><use x="2530" y="5263" href="#P1"></use><use x="2980" y="266" href="#P1"></use><use x="3368" y="1115" href="#P0"></use><use x="2951" y="1491" href="#P4"></use><use x="3386" y="2437" href="#P5"></use><use x="3127" y="2854" href="#P2"></use><use x="3320" y="3323" href="#P6"></use><use x="3511" y="4412" href="#P7"></use><use x="2979" y="4951" href="#P7"></use><use x="4121" y="-36" href="#P3"></use><use x="4221" y="945" href="#P2"></use><use x="4433" y="1756" href="#P8"></use><use x="3988" y="2463" href="#P3"></use><use x="3953" y="2583" href="#P8"></use><use x="3827" y="3556" href="#P8"></use><use x="3921" y="4009" href="#P2"></use><use x="4282" y="4739" href="#P1"></use><use x="4931" y="272" href="#P3"></use><use x="5134" y="447" href="#P8"></use><use x="4572" y="1157" href="#P8"></use><use x="4486" y="2154" href="#P1"></use><use x="4535" y="2533" href="#P6"></use><use x="4742" y="3386" href="#P0"></use><use x="5022" y="4119" href="#P6"></use><use x="5033" y="5155" href="#P2"></use></g></svg>